<?xml version="1.0" encoding="utf-8"?>
<!-- Generator: Adobe Illustrator 19.0.0, SVG Export Plug-In . SVG Version: 6.00 Build 0)  -->
<svg version="1.1" id="Layer_1" xmlns="http://www.w3.org/2000/svg" xmlns:xlink="http://www.w3.org/1999/xlink" x="0px" y="0px"
	 viewBox="0 0 285.6 233.5" style="enable-background:new 0 0 285.6 233.5;" xml:space="preserve">
<style type="text/css">
	.st0{fill:none;}
</style>
<rect y="0" class="st0" width="285.6" height="233.5"/>
<path d="M283.4,0.6c-0.7,1.3-1.4,2.7-2.2,4c-18.4,30.1-36.8,60.1-55.2,90.2c-19.1,31.2-38.3,62.4-57.4,93.6
	c-8.8,14.4-17.7,28.8-26.5,43.2c-1.1,1.8-1.1,1.8-2.2,0c-7.4-12.1-14.8-24.2-22.2-36.3c-0.6-0.9-0.5-1.6,0-2.5
	c12.5-21.4,25.1-42.8,37.6-64.2c10.1-17.2,20.1-34.4,30.2-51.6c6.6-11.3,13.2-22.6,19.9-33.9c0.1-0.1,0.1-0.3,0.2-0.6
	c-0.5-0.1-0.9-0.1-1.3-0.1c-5.1,0-10.2,0-15.2,0c-0.9,0-1.5,0.3-1.9,1.1c-10.8,18.5-21.6,37-32.4,55.5
	c-10.1,17.2-20.2,34.5-30.3,51.7c-5.3,9.1-10.6,18.2-15.9,27.2c-0.2,0.3-0.4,0.6-0.8,1.2c-0.5-0.8-1-1.4-1.4-2.1
	C87,145.1,67.5,113.4,48.1,81.6C31.9,55.2,15.7,28.7-0.5,2.2C-0.8,1.7-1,1.1-1.3,0.6c15.8,0,31.5,0,47.3,0c0.1,0.4,0.2,0.8,0.4,1.1
	c5.3,8.6,10.7,17.3,16,25.9c14.6,23.6,29.3,47.3,44,70.9c0.2,0.3,0.5,0.6,0.8,1c0.2-0.3,0.4-0.4,0.5-0.6c2.6-4.4,5.2-8.9,7.7-13.3
	c0.3-0.5,0.2-1.4-0.1-2c-1.7-3-3.6-5.9-5.4-8.9C102.2,62.5,94.6,50.2,87,38C80.3,27.1,73.6,16.3,66.8,5.4c-1-1.6-1.9-3.2-2.8-4.8
	c17.8,0,35.7,0,53.5,0c0.1,0.2,0.1,0.5,0.2,0.7c1.8,3,3.5,6.1,5.3,9.1c5.8,9.9,11.5,19.8,17.3,29.8c0.6,1,0.8,1,1.4,0
	c1.7-3,3.5-6,5.2-9c2.2-3.8,4.4-7.6,6.6-11.3c2.8-4.8,5.6-9.5,8.4-14.3c0.9-1.6,1.8-3.3,2.7-4.9C204.2,0.6,243.8,0.6,283.4,0.6z"/>
</svg>
